<?xml version="1.0" encoding="UTF-8" standalone="no"?><!DOCTYPE svg PUBLIC "-//W3C//DTD SVG 1.1//EN" "http://www.w3.org/Graphics/SVG/1.1/DTD/svg11.dtd"><svg width="100%" height="100%" viewBox="0 0 195 196" version="1.1" xmlns="http://www.w3.org/2000/svg" xmlns:xlink="http://www.w3.org/1999/xlink" xml:space="preserve" xmlns:serif="http://www.serif.com/" style="fill-rule:evenodd;clip-rule:evenodd;stroke-linecap:round;stroke-linejoin:round;stroke-miterlimit:6;"><rect id="Orthonal-Circles-Axes" serif:id="Orthonal Circles Axes" x="0.059" y="0.993" width="194.342" height="194.342" style="fill:none;"/><clipPath id="_clip1"><rect x="0.059" y="0.993" width="194.342" height="194.342"/></clipPath><g clip-path="url(#_clip1)"><path d="M134.824,76.461c0,23.973 -16.83,53.124 -37.591,65.11l0,-43.406l37.591,-21.704Z" style="fill:#9457b1;"/><path d="M54.087,73.254c0,27.515 19.317,60.973 43.146,74.731c23.829,13.757 43.146,2.605 43.146,-24.91l-43.146,-24.91l-43.146,-24.911Z" style="fill:url(#_Linear2);"/><path d="M97.233,147.985c-23.829,13.757 -43.146,2.605 -43.146,-24.91l43.146,-24.91l0,49.82Z" style="fill:url(#_Linear3);"/><path d="M97.23,185.897l-0,-87.733" style="fill:none;stroke:#000;stroke-width:3px;"/><path d="M54.087,73.254c23.813,-13.748 62.479,-13.748 86.292,0c23.812,13.749 23.812,36.072 -0,49.821c-23.813,13.748 -62.479,13.748 -86.292,-0c-23.812,-13.749 -23.812,-36.072 0,-49.821Z" style="fill:#389725;"/><path d="M97.233,48.344c23.829,-13.757 43.146,-2.604 43.146,24.91l-43.146,24.911l0,-49.821Z" style="fill:#9457b1;"/><path d="M173.209,54.297l-75.979,43.867" style="fill:none;stroke:#000;stroke-width:3px;"/><path d="M140.379,123.075c-0,-27.515 -19.317,-60.973 -43.146,-74.731c-23.829,-13.757 -43.146,-2.604 -43.146,24.91l43.146,24.911l43.146,24.91Z" style="fill:url(#_Linear4);"/><path d="M21.25,54.297l75.98,43.867" style="fill:none;stroke:#000;stroke-width:3px;"/><path d="M54.087,123.075c0,-27.515 19.317,-60.973 43.146,-74.731l0,49.821l-43.146,24.91Z" style="fill:url(#_Linear5);"/><path d="M169.614,134.758l3.595,7.273l-8.095,0.522" style="fill:none;stroke:#000;stroke-width:3px;stroke-linejoin:miter;stroke-miterlimit:10;"/><path d="M97.23,98.164l75.979,43.867" style="fill:none;stroke:#000;stroke-width:3px;"/><path d="M29.345,142.553l-8.095,-0.522l3.595,-7.273" style="fill:none;stroke:#000;stroke-width:3px;stroke-linejoin:miter;stroke-miterlimit:10;"/><path d="M97.23,98.164l-75.98,43.867" style="fill:none;stroke:#000;stroke-width:3px;"/><path d="M92.73,17.18l4.5,-6.75l4.5,6.75" style="fill:none;stroke:#000;stroke-width:3px;stroke-linejoin:miter;stroke-miterlimit:10;"/><path d="M97.23,98.164l-0,-87.734" style="fill:none;stroke:#000;stroke-width:3px;"/></g><defs><linearGradient id="_Linear2" x1="0" y1="0" x2="1" y2="0" gradientUnits="userSpaceOnUse" gradientTransform="matrix(3.73498,-45.9029,45.9029,3.73498,108.644,152.812)"><stop offset="0" style="stop-color:#ca3b33;stop-opacity:1"/><stop offset="1" style="stop-color:#8c120c;stop-opacity:1"/></linearGradient><linearGradient id="_Linear3" x1="0" y1="0" x2="1" y2="0" gradientUnits="userSpaceOnUse" gradientTransform="matrix(2.49443,-32.5099,32.5099,2.49443,85.6498,151.585)"><stop offset="0" style="stop-color:#9457b1;stop-opacity:1"/><stop offset="1" style="stop-color:#621f81;stop-opacity:1"/></linearGradient><linearGradient id="_Linear4" x1="0" y1="0" x2="1" y2="0" gradientUnits="userSpaceOnUse" gradientTransform="matrix(66.096,-52.7666,52.7666,66.096,31.1371,123.075)"><stop offset="0" style="stop-color:#8c120c;stop-opacity:1"/><stop offset="1" style="stop-color:#ca3b33;stop-opacity:1"/></linearGradient><linearGradient id="_Linear5" x1="0" y1="0" x2="1" y2="0" gradientUnits="userSpaceOnUse" gradientTransform="matrix(32.1212,27.5685,-27.5685,32.1212,62.1307,89.4563)"><stop offset="0" style="stop-color:#9457b1;stop-opacity:1"/><stop offset="1" style="stop-color:#621f81;stop-opacity:1"/></linearGradient></defs></svg>
